<svg width="58" height="51" fill="none" xmlns="http://www.w3.org/2000/svg">
  <rect x="12.68" width="32.72" height="23.37" rx="2" transform="rotate(20.82 12.68 0)" fill="#fff"/>
  <mask id="a" style="mask-type:luminance" maskUnits="userSpaceOnUse" x="4" y="0" width="39" height="33">
    <rect x="12.68" width="32.72" height="23.37" rx="2" transform="rotate(20.82 12.68 0)" fill="#fff"/>
  </mask>
  <g mask="url(#a)">
    <path fill-rule="evenodd" clip-rule="evenodd" d="m10.46 5.83 30.58 11.62 2.22-5.82L12.68 0l-2.22 5.83ZM4.37 21.84l30.58 11.63 2.22-5.82L6.59 16.02l-2.22 5.82Z" fill="#DD172C"/>
    <path fill-rule="evenodd" clip-rule="evenodd" d="m6.59 16.02 30.58 11.63 3.87-10.2L10.46 5.83 6.6 16.02Z" fill="#FFD133"/>
    <path fill-rule="evenodd" clip-rule="evenodd" d="m16.81 13.24 1.46.55-.28.73-1.46-.55.28-.73Z" fill="#FFEDB1"/>
    <path d="M15.39 12.6a.33.33 0 0 1 .44-.21l2.28.87c.19.07.27.28.18.45l-1.18 2.47a1 1 0 0 1-1.26.5l-.61-.23a1 1 0 0 1-.61-1.21l.76-2.63Z" stroke="#A41517" stroke-width=".67"/>
    <path fill-rule="evenodd" clip-rule="evenodd" d="m15.08 13.41 2.91 1.11-.28.73-.72-.28-1.29 1.18-.17-1.73-.73-.28.28-.73Z" fill="#A41517"/>
    <rect x="13.72" y="10.4" width="1.56" height="5.45" rx=".67" transform="rotate(20.82 13.72 10.4)" fill="#A41517"/>
    <rect x="19.55" y="12.61" width="1.56" height="5.45" rx=".67" transform="rotate(20.82 19.55 12.61)" fill="#A41517"/>
    <path d="M16.02 10.94c.24-.64.96-.97 1.6-.72l.59.22c.64.24.97.96.72 1.6a.31.31 0 0 1-.4.19l-2.33-.89a.31.31 0 0 1-.18-.4Z" fill="#A41517"/>
  </g>
  <rect x="16.66" y="17.84" width="32.72" height="21.81" rx="2" transform="rotate(.12 16.66 17.84)" fill="#fff"/>
  <mask id="b" style="mask-type:luminance" maskUnits="userSpaceOnUse" x="16" y="17" width="34" height="23">
    <rect x="16.66" y="17.84" width="32.72" height="21.81" rx="2" transform="rotate(.12 16.66 17.84)" fill="#fff"/>
  </mask>
  <g mask="url(#b)">
    <path fill-rule="evenodd" clip-rule="evenodd" d="m49.37 17.91-32.71-.07v1.46l32.71.06v-1.45Zm0 2.9-32.72-.06v1.46l32.72.06v-1.45Zm-32.73 2.85 32.72.07v1.45l-32.72-.07v-1.45Zm32.72 2.97-32.72-.06v1.45l32.71.07v-1.46Zm-32.73 2.85 32.72.06V31l-32.72-.07v-1.45Zm32.72 2.97-32.72-.06v1.45l32.71.07v-1.46ZM16.62 35.3l32.72.07v1.45l-32.72-.06v-1.46Zm32.71 2.98-32.71-.07v1.46l32.71.06v-1.45Z" fill="#D02F44"/>
    <path fill="#46467F" d="m16.66 17.84 14.02.03-.02 10.18-14.02-.03z"/>
    <g filter="url(#c)">
      <path fill-rule="evenodd" clip-rule="evenodd" d="M19.77 20.03c0 .4-.35.73-.78.73-.43 0-.78-.33-.78-.73 0-.4.35-.73.78-.73.43 0 .78.33.78.73Zm3.11 0c0 .4-.35.73-.78.73-.43 0-.77-.32-.77-.73 0-.4.35-.72.78-.72.43 0 .77.33.77.73Zm2.34.74c.43 0 .78-.32.78-.73 0-.4-.35-.72-.78-.72-.43 0-.78.32-.78.72 0 .4.35.73.78.73Zm3.9-.72c0 .4-.35.73-.78.73-.43 0-.78-.33-.78-.73 0-.4.35-.73.78-.73.43 0 .78.33.78.73Zm-8.58 2.16c.43 0 .78-.32.78-.72 0-.4-.34-.73-.77-.73s-.78.32-.78.73c0 .4.34.72.77.72Zm3.9-.71c0 .4-.35.72-.78.72-.43 0-.78-.33-.78-.73 0-.4.35-.72.78-.72.43 0 .78.32.78.73Zm2.33.73c.43 0 .78-.33.79-.73 0-.4-.35-.73-.78-.73-.43 0-.78.33-.78.73 0 .4.34.73.77.73Zm2.34.73c0 .4-.35.72-.78.72-.43 0-.78-.32-.78-.72 0-.4.35-.73.78-.73.43 0 .78.33.78.73Zm-3.9.72c.43 0 .78-.33.78-.73 0-.4-.34-.73-.77-.73s-.78.33-.78.73c0 .4.34.73.77.73Zm-2.33-.73c0 .4-.35.72-.78.72-.43 0-.78-.33-.78-.73 0-.4.35-.72.78-.72.43 0 .78.32.78.73Zm-3.9.72c.43 0 .78-.33.78-.73 0-.4-.35-.73-.78-.73-.43 0-.78.32-.78.73 0 .4.35.72.78.73Zm2.34.73c0 .4-.35.72-.78.72-.43 0-.78-.32-.78-.73 0-.4.35-.72.78-.72.43 0 .78.33.78.73Zm2.33.73c.43 0 .78-.33.78-.73 0-.4-.34-.72-.77-.73-.43 0-.78.33-.78.73 0 .4.34.73.77.73Zm3.9-.72c0 .4-.35.73-.78.73-.43 0-.78-.33-.78-.73 0-.4.35-.73.78-.73.43 0 .78.33.78.73Zm.77 2.18c.43 0 .78-.32.78-.72 0-.4-.34-.73-.77-.73s-.78.32-.78.72c0 .4.34.73.77.73ZM26 25.86c0 .4-.35.73-.78.73-.43 0-.78-.33-.78-.73 0-.4.35-.73.78-.73.43 0 .78.33.78.73Zm-3.9.72c.43 0 .78-.32.78-.73 0-.4-.35-.72-.78-.72-.43 0-.77.32-.78.72 0 .4.35.73.78.73Zm-2.33-.73c0 .4-.35.72-.78.72-.43 0-.78-.32-.78-.73 0-.4.35-.72.78-.72.43 0 .78.33.78.73Z" fill="url(#d)"/>
    </g>
  </g>
  <defs>
    <linearGradient id="d" x1="18.21" y1="19.3" x2="18.2" y2="26.57" gradientUnits="userSpaceOnUse">
      <stop stop-color="#fff"/>
      <stop offset="1" stop-color="#F0F0F0"/>
    </linearGradient>
    <filter id="c" x="18.2" y="19.3" width="10.92" height="8.29" filterUnits="userSpaceOnUse" color-interpolation-filters="sRGB">
      <feFlood flood-opacity="0" result="BackgroundImageFix"/>
      <feColorMatrix in="SourceAlpha" values="0 0 0 0 0 0 0 0 0 0 0 0 0 0 0 0 0 0 127 0" result="hardAlpha"/>
      <feOffset dy="1"/>
      <feColorMatrix values="0 0 0 0 0 0 0 0 0 0 0 0 0 0 0 0 0 0 0.06 0"/>
      <feBlend in2="BackgroundImageFix" result="effect1_dropShadow_3151_5209"/>
      <feBlend in="SourceGraphic" in2="effect1_dropShadow_3151_5209" result="shape"/>
    </filter>
  </defs>
</svg>
