<svg width="46" height="41" fill="none" xmlns="http://www.w3.org/2000/svg">
  <path d="M12.4274 3.02023c.9398-1.47661 1.3459-2.851773 1.3459-2.851773s-1.2319.411799-2.7452 1.609073C9.64415 3.02388 8.04184 5.1942 8.15469 8.03382c2.06921-1.65089 3.43491-3.41871 4.27271-5.01359ZM4.5279 19.4236l-.08029 1.1599c-.01436.247.15535.466.40314.4722.2383.0196.45353-.1808.46673-.4196l.08108-1.1565c1.6997-1.0199 2.86549-2.4751 3.59938-3.7726.36986-.7191.70176-1.3668.94016-1.8317.1929-.4934.3186-.7923.3186-.7923s-1.10528.1064-2.46465.988c-.96181.7292-2.25477 2.0599-2.7336 4.1797-.00309-.0005-.00593-.0029-.00964-.0035.01557-2.1861-.24983-3.9249-.79925-5.3077-.50157-1.6333-1.2246-2.6421-1.2246-2.6421s-.11696.3997-.30336 1.0365c-.1602.649-.36805 1.5382-.30655 2.5782.01358 1.8834.48949 4.0928 2.11285 5.5115Z" fill="#ECCCA1" fill-opacity=".64"/>
  <path d="M5.59016 13.4191c-.08776.2413.04904.4914.28707.5671.22458.0721.45931-.0727.54511-.3l.36611-1.0678c1.85231-.5523 3.05976-1.7707 4.10815-2.76879.543-.57004.9327-1.13702 1.1926-1.55586.2843-.40757.4707-.64673.4707-.64673s-1.1454-.20518-2.4624.41965C9.0013 8.54228 7.62195 9.508 6.72158 11.3183c-.00912-.0028-.0169-.0061-.0255-.0082.45447-2.00044.46936-3.66164.28418-5.03638-.28654-1.6966-.67819-2.74344-.67819-2.74344-.15113-.14802-2.91979 5.33505-.36338 8.85592l-.34853 1.0329ZM8.13846 33.7775c.32176.4645.91882 1.3086.965 1.2641.18139.1857.46775.2062.63742.0367.16868-.171.18103-.4536.01145-.6237-.04662.0334-.64538-.8071-.9474-1.2363 1.56157-4.8503.595-8.7259.76601-8.9859 0 0-1.24213.6745-1.92061 2.2235-.72389 1.3528-1.11872 3.864.40097 6.383-.00993.0075-.02056.011-.02988.0186-.01613.011-.02439.0292-.03761.042-1.77059-2.3403-3.28106-4.0345-4.69042-5.3598C1.62652 26.0877.501291 25.346.502276 25.339c-.091962-.0363.239677 2.1798 1.578684 4.5355 1.23294 2.1531 3.54795 3.9994 6.0575 3.903Z" fill="#ECCCA1" fill-opacity=".64"/>
  <path d="m13.5913 38.8977 2.8216 1.7568c.214.1422.4914.0325.5903-.1795.1031-.2375-.0014-.4829-.2027-.6164l-2.7834-1.7405c-.1219-2.6805-.8487-4.8601-1.4669-6.394-.5749-1.703-1.2631-2.7981-1.2155-2.8476 0 0-.9529 1.0911-1.0786 2.9682-.27324 1.7663.4976 4.3333 3.0556 6.2646-.0172.0186-.0378.0341-.053.0571-2.6641-1.6911-5.03039-2.6384-6.8763-3.4653-2.13238-.7834-3.59309-1.1053-3.59309-1.1053s.19791.5515.78315 1.3036c.59611.7245 1.39686 1.7536 2.50013 2.6066 2.1252 1.6167 5.08371 2.5793 7.51871 1.3917ZM5.02493 27.0145l.428 1.5609c.06942.2466.30389.393.5303.3028.22703-.09.35468-.3533.29154-.5905l-.41037-1.5012c1.56571-1.7964 2.56414-3.7405 3.02508-5.3259.69774-1.7312.70812-3.1301.7866-3.1516 0 0-1.26143.3285-2.48821 1.6442-1.13945 1.1364-2.30874 3.2811-1.85831 6.1876-.03143-.002-.06224-.0084-.09343-.0032-.74616-2.8332-1.63494-4.9934-2.53737-6.6134-1.05917-1.8049-2.067951-2.834-2.067951-2.834s-.123479.4913-.101678 1.3124c-.004669.8154.05102 1.9557.247248 3.1611.560421 2.317 1.785651 4.9501 4.248551 5.8508ZM34.1041 3.02023C33.1643 1.54362 32.7582.168457 32.7582.168457s1.2319.411799 2.7452 1.609073c1.3839 1.24635 2.9863 3.41667 2.8734 6.25629-2.0692-1.65089-3.4349-3.41871-4.2727-5.01359ZM42.0036 19.4236l.0803 1.1599c.0143.247-.1554.466-.4032.4722-.2383.0196-.4535-.1808-.4667-.4196l-.0811-1.1565c-1.6997-1.0199-2.8655-2.4751-3.5994-3.7726-.3698-.7191-.7017-1.3668-.9401-1.8317-.1929-.4934-.3186-.7923-.3186-.7923s1.1053.1064 2.4646.988c.9619.7292 2.2548 2.0599 2.7336 4.1797.0031-.0005.006-.0029.0097-.0035-.0156-2.1861.2498-3.9249.7992-5.3077.5016-1.6333 1.2246-2.6421 1.2246-2.6421s.117.3997.3034 1.0365c.1602.649.368 1.5382.3065 2.5782-.0135 1.8834-.4894 4.0928-2.1128 5.5115Z" fill="#ECCCA1" fill-opacity=".64"/>
  <path d="M40.9413 13.4191c.0878.2413-.049.4914-.287.5671-.2246.0721-.4593-.0727-.5451-.3l-.3662-1.0678c-1.8523-.5523-3.0597-1.7707-4.1081-2.76879-.543-.57004-.9327-1.13702-1.1926-1.55586-.2843-.40757-.4707-.64673-.4707-.64673s1.1454-.20518 2.4624.41965c1.0962.47561 2.4755 1.44133 3.3759 3.25163.0091-.0028.0169-.0061.0255-.0082-.4545-2.00044-.4693-3.66164-.2842-5.03638.2866-1.6966.6782-2.74344.6782-2.74344.1512-.14802 2.9198 5.33505.3634 8.85592l.3485 1.0329ZM38.393 33.7775c-.3217.4645-.9188 1.3086-.965 1.2641-.1814.1857-.4677.2062-.6374.0367-.1687-.171-.181-.4536-.0114-.6237.0466.0334.6453-.8071.9474-1.2363-1.5616-4.8503-.595-8.7259-.766-8.9859 0 0 1.2421.6745 1.9206 2.2235.7239 1.3528 1.1187 3.864-.401 6.383.0099.0075.0206.011.0299.0186.0161.011.0244.0292.0376.042 1.7706-2.3403 3.281-4.0345 4.6904-5.3598 1.6669-1.452 2.7921-2.1937 2.7911-2.2007.092-.0363-.2397 2.1798-1.5787 4.5355-1.2329 2.1531-3.5479 3.9994-6.0575 3.903Z" fill="#ECCCA1" fill-opacity=".64"/>
  <path d="m32.9402 38.8977-2.8216 1.7568c-.214.1422-.4915.0325-.5903-.1795-.1031-.2375.0014-.4829.2027-.6164l2.7834-1.7405c.1218-2.6805.8487-4.8601 1.4669-6.394.5749-1.703 1.2631-2.7981 1.2154-2.8476 0 0 .953 1.0911 1.0787 2.9682.2732 1.7663-.4976 4.3333-3.0556 6.2646.0172.0186.0378.0341.053.0571 2.6641-1.6911 5.0304-2.6384 6.8763-3.4653 2.1324-.7834 3.5931-1.1053 3.5931-1.1053s-.1979.5515-.7832 1.3036c-.5961.7245-1.3968 1.7536-2.5001 2.6066-2.1252 1.6167-5.0837 2.5793-7.5187 1.3917ZM41.5066 27.0145l-.428 1.5609c-.0695.2466-.3039.393-.5303.3028-.2271-.09-.3547-.3533-.2916-.5905l.4104-1.5012c-1.5657-1.7964-2.5641-3.7405-3.0251-5.3259-.6977-1.7312-.7081-3.1301-.7866-3.1516 0 0 1.2614.3285 2.4882 1.6442 1.1395 1.1364 2.3088 3.2811 1.8583 6.1876.0315-.002.0623-.0084.0935-.0032.7461-2.8332 1.6349-4.9934 2.5373-6.6134 1.0592-1.8049 2.068-2.834 2.068-2.834s.1235.4913.1017 1.3124c.0046.8154-.0511 1.9557-.2473 3.1611-.5604 2.317-1.7856 4.9501-4.2485 5.8508Z" fill="#ECCCA1" fill-opacity=".64"/>
  <path d="M11.136 16.3665c-.308.1173-.792.2567-1.452.418-.66.1613-1.19533.2713-1.606.33l-.22-1.232c.748-.1613 1.51067-.4327 2.288-.814.792-.3813 1.452-.7993 1.98-1.254h.022l1.342.22v12.408l2.728.198v1.078h-7.92v-1.078l2.838-.198v-10.076Zm7.6215 13.684c.4106.044.8506.066 1.32.066 1.0413 0 1.9946-.2127 2.86-.638.8653-.4253 1.5473-1.012 2.046-1.76.4986-.748.748-1.5987.748-2.552 0-2.3613-1.0927-3.542-3.278-3.542-.484 0-1.0267.0733-1.628.22-.5867.132-1.1.2933-1.54.484l-.594-.418 1.078-7.92h6.27l.22-.418h1.364l-.396 2.266h-5.83l-1.012 5.126c.396-.2053.902-.3887 1.518-.55.616-.1613 1.232-.242 1.848-.242 1.408 0 2.5153.396 3.322 1.188.8066.792 1.21 1.9433 1.21 3.454 0 1.1587-.3374 2.2293-1.012 3.212-.66.9827-1.5987 1.7673-2.816 2.354-1.2174.5867-2.6034.88-4.158.88-.6307 0-1.144-.0513-1.54-.154v-1.056Zm17.4845-10.076-.066-1.87v-2.42h1.694v2.42l-.11 1.87 1.672-.11h2.552v1.672h-2.552l-1.672-.066.11 1.826v2.574h-1.694v-2.574l.066-1.826-1.914.066h-2.266v-1.672h2.266l1.914.11Z" fill="#3F4850"/>
</svg>
