<svg xmlns="http://www.w3.org/2000/svg" fill="none" viewBox="0 0 41 49">
  <path stroke="#333A5F" stroke-width="1.5" d="M40 7.026 20.4 1.153.801 7.026V22.42c-.068 3.983 3.735 14.502 19.497 24.71C35.73 37.407 39.863 26.605 40 22.419V7.026Z"/>
  <path fill="#333A5F" fill-rule="evenodd" d="M38 8.45 20.4 3.135 2.8 8.451v10.933h15.243l-1.556-3.153c-1.324.385-2.779-.217-3.4-1.48-.7-1.401-.072-3.137 1.362-3.84 1.454-.714 3.195-.113 3.894 1.289a2.826 2.826 0 0 1-.991 3.664l1.635 3.52h2.46l1.7-3.55a2.822 2.822 0 0 1-.942-3.671c.61-1.158 1.965-1.767 3.233-1.501.525.1.954.358 1.303.658.53-.597 1.776-1.638 3.905-1.84.01-.006.017-.004.025-.002s.016.005.026 0c.317.007.582.25.563.545a.538.538 0 0 1-.502.505c-2.026.2-3.036 1.292-3.308 1.646a2.827 2.827 0 0 1-.015 2.513 2.971 2.971 0 0 1-3.416 1.498l-1.624 3.2H38V8.45ZM17.411 25.33l-4.075 10.975a.418.418 0 0 0 .215.529l1.605.779c.26.142.563.029.706-.23a.514.514 0 0 0-.232-.7l-1.604-.78.246-.495 1.605.78c.26.141.563.028.706-.23a.514.514 0 0 0-.232-.7l-1.604-.78.246-.495 1.605.779c.261.142.563.029.706-.23a.514.514 0 0 0-.231-.7l-1.605-.779.246-.495 1.616.798c.261.142.563.03.707-.23a.514.514 0 0 0-.232-.7l-1.616-.798.247-.496 1.635.788c.261.142.563.03.707-.23a.513.513 0 0 0-.232-.7l-1.636-.788.247-.495 1.635.788c.261.142.564.029.707-.23a.514.514 0 0 0-.232-.7l-1.636-.788.247-.496 1.646.808c.261.142.564.03.707-.23a.514.514 0 0 0-.232-.7l-1.646-.807 1.025-2.022h1.588l5.561 11.36c.055.1.179.135.28.08a.22.22 0 0 0 .111-.267L22.942 25.33H37.45c-1.436 4.725-5.97 12.385-17.05 19.42C9.177 37.425 4.648 29.92 3.285 25.33H17.41Zm5.578-12.741a2.077 2.077 0 0 1 2.744-.926 1.99 1.99 0 0 1 .912 2.68 2.077 2.077 0 0 1-2.744.925 1.952 1.952 0 0 1-.912-2.68Zm-9.078 1.816c-.499-.993-.065-2.185.958-2.69 1.023-.505 2.245-.086 2.724.918.5.994.065 2.186-.958 2.691-1.013.474-2.225.075-2.724-.918Z" clip-rule="evenodd"/>
  <path fill="#333A5F" d="m4.712 21.275-.312-.047v-.225h.897l1.177 1.636.222.415v-1.779l-.34-.047v-.225h.98v.225l-.305.047v2.43h-.478l-1.228-1.72-.277-.48v1.945l.399.036v.218H4.4v-.218l.312-.036v-2.175Zm4.223 2.459c-.4 0-.698-.093-.893-.277-.195-.184-.293-.474-.293-.869v-1.313l-.26-.047v-.225h1.193v.225l-.336.051v1.356c0 .577.223.866.668.866.218 0 .38-.074.486-.222.105-.15.158-.36.158-.63v-1.37l-.34-.05v-.226h.988v.225l-.27.047v1.346c0 .378-.1.658-.3.84-.197.181-.464.273-.801.273Zm1.88-2.459-.315-.047v-.225h2.106l.051.61h-.277l-.13-.36-.853-.032v.978l.549-.01.063-.3h.253v.88h-.253l-.063-.312-.55-.01v1.025l.957-.044.229-.465.296.076-.103.665h-2.271v-.218l.312-.036v-2.175Zm2.052-.272h1.201v.225l-.335.047.588 1.63.115.367.099-.371.553-1.626-.312-.047v-.225h.956v.225l-.253.047-.909 2.455h-.47l-.995-2.455-.238-.047v-.225Zm3.863-.015h.604l.913 2.462.229.036v.218H17.31v-.218l.297-.036-.154-.473h-1.024l-.154.476.32.033v.218h-1.007l-.004-.218.237-.036.909-2.462Zm.272.615-.07-.284-.076.287-.352 1.117h.87l-.372-1.12Zm2.878-.328-.336-.047v-.225h1.265v.225l-.348.047v2.175l.348.04v.214h-1.265v-.218l.336-.036v-2.175Zm1.74 0-.428-.047v-.225h1.233l.47 1.563.11.426.096-.426.466-1.563h1.22v.225l-.43.047.316 2.171.32.04v.218h-1.26v-.218l.348-.036-.174-1.593-.075-.665-.147.56-.572 1.84h-.42l-.584-1.746-.202-.654-.059.665-.15 1.593.4.036v.218h-1.1v-.218l.333-.036.288-2.175Zm4.462-.287h.604l.913 2.462.23.036v.218h-1.166v-.218l.296-.036-.154-.473h-1.023l-.154.476.32.033v.218H24.94l-.004-.218.237-.036.909-2.462Zm.273.615-.072-.284-.075.287-.351 1.117h.869l-.371-1.12Zm2.948 2.141c-.29 0-.54-.058-.751-.174a1.187 1.187 0 0 1-.474-.487 1.481 1.481 0 0 1-.162-.699c0-.298.062-.553.186-.767a1.21 1.21 0 0 1 .533-.483c.229-.11.496-.164.802-.164.287 0 .61.038.968.113l-.044.676h-.399l-.106-.465a.372.372 0 0 0-.15-.066 1.045 1.045 0 0 0-.289-.033.722.722 0 0 0-.608.291c-.148.192-.222.47-.222.833 0 .356.064.645.19.865a.623.623 0 0 0 .577.328c.105 0 .204-.012.296-.037a.558.558 0 0 0 .21-.094v-.782l-.42-.036v-.244h1.202v.244l-.21.032v.964a1.68 1.68 0 0 0-.3.062 5.66 5.66 0 0 1-.434.09c-.119.023-.25.033-.395.033Zm1.88-2.469-.315-.047v-.225h2.106l.05.61h-.276l-.13-.36-.853-.032v.978l.549-.01.063-.3h.253v.88h-.253l-.063-.312-.55-.01v1.025l.957-.044.229-.465.296.076-.103.665h-2.271v-.218l.312-.036v-2.175Zm2.594 0-.313-.047v-.225h.897l1.178 1.636.221.415v-1.779l-.34-.047v-.225h.98v.225l-.304.047v2.43h-.478l-1.229-1.72-.277-.48v1.945l.4.036v.218h-1.047v-.218l.312-.036v-2.175Z"/>
</svg>
