<svg width="200" height="57" fill="none" xmlns="http://www.w3.org/2000/svg">
  <path d="m49.924 29.912-.715-.1v-.416h1.177c.198 0 .448-.01.75-.033.28-.022.486-.033.62-.033.802 0 1.375.12 1.718.358.349.238.523.588.523 1.048 0 .394-.119.733-.357 1.016-.239.283-.564.46-.977.532.558-.01.997.114 1.317.375.32.26.48.616.48 1.065 0 .56-.21 1.018-.628 1.373-.413.355-1.1.533-2.059.533-.21 0-.41-.009-.602-.025a36.63 36.63 0 0 0-.811-.025H49.2v-.408l.724-.083v-5.177Zm.924 2.214c.082.006.248.008.498.008h.48c.406 0 .715-.108.924-.324.21-.216.314-.524.314-.924 0-.388-.105-.671-.314-.849-.21-.183-.567-.274-1.073-.274-.209 0-.424.01-.645.033l-.184.017v2.313Zm0 2.988c.134.044.437.066.908.066.587 0 1.012-.113 1.273-.34.268-.234.401-.567.401-1 0-.427-.116-.737-.348-.932-.227-.194-.596-.29-1.108-.29-.593 0-.968.005-1.126.016v2.48Zm5.92-5.202-.716-.1v-.416h4.44l.122 1.29h-.497l-.253-.807-2.164-.05v2.347l1.457-.025.122-.69h.48v1.913h-.48l-.122-.715-1.457-.025v2.48l2.46-.083.462-1.049.515.15-.253 1.448h-4.84v-.408l.723-.083v-5.177Zm7.957-.566h.96l2.12 5.743.54.083v.408h-2.303v-.408l.724-.083-.41-1.232H63.81l-.41 1.232.75.083v.408h-2.068v-.408l.541-.083 2.102-5.742Zm.55 1.332-.218-.732-.21.749-.88 2.671h2.224l-.916-2.688Zm7.155 4.968c-.854 0-1.485-.216-1.892-.649-.402-.438-.602-1.115-.602-2.03v-3.055l-.62-.1v-.416h2.33v.416l-.742.109v3.137c0 .755.14 1.298.419 1.631.285.333.692.5 1.221.5.53 0 .924-.178 1.186-.533.268-.355.402-.871.402-1.548v-3.187l-.733-.108v-.417h2.032v.416l-.637.1v3.154c0 .866-.215 1.512-.645 1.94-.43.427-1.003.64-1.719.64Zm6.536-5.809-1.5.05-.306 1.74h-.576l.149-2.23h5.434l.105 2.23h-.55l-.288-1.74-1.509-.05v5.252l1.239.083v.408h-3.332v-.408l1.134-.083v-5.252Zm6.763 3.338-1.963-3.254-.523-.108v-.417h2.277v.416l-.69.1 1.23 2.23.28.633.314-.632 1.16-2.23-.716-.1v-.417h1.99v.416l-.568.1-1.823 3.254v1.915l.977.091v.408h-2.896v-.408l.95-.083v-1.914Zm9.576 2.496c-.303 0-.573-.025-.811-.075-.239-.05-.5-.116-.785-.2a1.64 1.64 0 0 0-.393-.1l.07-1.505h.558l.149 1.082c.098.088.258.169.48.24.226.067.473.1.741.1.442 0 .776-.094 1.003-.282.232-.189.349-.45.349-.783a.85.85 0 0 0-.192-.557 1.536 1.536 0 0 0-.497-.4 9.37 9.37 0 0 0-.846-.39 7.32 7.32 0 0 1-.855-.425 2.229 2.229 0 0 1-.628-.574 1.46 1.46 0 0 1-.262-.874c0-.305.084-.577.253-.816.175-.244.421-.435.741-.574a2.874 2.874 0 0 1 1.134-.208c.268 0 .503.02.707.058.21.039.445.092.707.158.116.039.214.064.296.075l-.052 1.398h-.532l-.175-1.023c-.058-.056-.18-.109-.366-.159a2.222 2.222 0 0 0-.593-.074c-.402 0-.707.08-.916.24-.204.162-.306.395-.306.7 0 .222.062.408.184.558.127.15.284.277.47.382.187.106.483.25.89.433.378.172.686.328.925.466.238.139.442.322.61.55.175.221.262.488.262.799 0 .294-.087.576-.261.848-.17.272-.43.497-.786.674-.348.172-.773.258-1.273.258Zm6.819 0c-.64 0-1.187-.13-1.64-.39a2.587 2.587 0 0 1-1.02-1.116c-.234-.477-.35-1.037-.35-1.681 0-.621.137-1.17.41-1.648a2.845 2.845 0 0 1 1.126-1.107 3.23 3.23 0 0 1 1.604-.4c.448 0 .986.067 1.614.2l.288.05-.087 1.498h-.585l-.218-1.056c-.081-.067-.224-.123-.427-.167a3.05 3.05 0 0 0-.733-.075c-.372 0-.704.103-.994.308-.291.2-.521.497-.689.89-.163.395-.245.866-.245 1.415 0 .522.073.996.218 1.423.146.428.367.769.664 1.024.296.25.662.375 1.098.375.308 0 .544-.025.707-.075.169-.05.311-.122.427-.217l.367-.815.549.066-.209 1.182a2.436 2.436 0 0 0-.541.117 5.337 5.337 0 0 1-.61.141 3.743 3.743 0 0 1-.724.058Zm4.416-5.759-.689-.1v-.416h2.372v.416l-.75.1v2.24h3.071v-2.24l-.707-.1v-.416h2.338v.416l-.689.1v5.177l.689.083v.408h-2.347v-.408l.716-.083v-2.422h-3.071v2.422l.759.083v.408h-2.398v-.408l.706-.083v-5.177Zm9.997 5.76c-.593 0-1.096-.131-1.509-.392a2.444 2.444 0 0 1-.924-1.098c-.21-.477-.314-1.03-.314-1.656 0-.639.124-1.199.374-1.682a2.766 2.766 0 0 1 1.047-1.115c.442-.266.939-.4 1.492-.4.907 0 1.599.276 2.076.825.482.544.724 1.298.724 2.263 0 .65-.131 1.221-.393 1.715-.256.488-.61.868-1.064 1.14-.448.266-.951.4-1.509.4Zm.113-5.91c-.564 0-1.009.236-1.334.708-.326.466-.488 1.151-.488 2.056 0 .832.156 1.492.47 1.98.32.483.765.724 1.335.724.558 0 1-.241 1.326-.724.331-.482.497-1.176.497-2.08 0-.838-.157-1.49-.471-1.956-.314-.472-.759-.707-1.335-.707Zm7.054 5.91c-.593 0-1.096-.131-1.509-.392a2.452 2.452 0 0 1-.925-1.098c-.209-.477-.314-1.03-.314-1.656 0-.639.126-1.199.376-1.682a2.757 2.757 0 0 1 1.046-1.115c.442-.266.939-.4 1.492-.4.907 0 1.599.276 2.076.825.482.544.724 1.298.724 2.263 0 .65-.131 1.221-.393 1.715-.256.488-.61.868-1.064 1.14-.448.266-.951.4-1.509.4Zm.114-5.91c-.565 0-1.01.236-1.335.708-.326.466-.489 1.151-.489 2.056 0 .832.158 1.492.472 1.98.319.483.764.724 1.334.724.558 0 1-.241 1.326-.724.331-.482.497-1.176.497-2.08 0-.838-.157-1.49-.471-1.956-.314-.472-.759-.707-1.334-.707Zm5.152.15-.707-.1v-.416h2.503v.416l-.863.1v5.177l2.25-.075.515-1.398.532.075-.305 1.889h-4.649v-.408l.724-.083v-5.177ZM50.128 11.701l-1.328-.216v-1.03h3.815l5.007 7.48.942 1.895V11.7l-1.446-.216v-1.03h4.168v1.03l-1.294.216v11.104h-2.034l-5.226-7.862-1.176-2.194v8.893l1.697.166v.997H48.8v-.997l1.328-.166v-9.94Zm18.968 11.237c-1.703 0-2.97-.42-3.798-1.263-.83-.842-1.244-2.167-1.244-3.973v-6l-1.109-.217v-1.03h5.075v1.03l-1.428.233v6.2c0 2.638.946 3.956 2.84 3.956.93 0 1.618-.338 2.067-1.014.448-.687.672-1.645.672-2.875v-6.267l-1.445-.233v-1.03h4.2v1.03l-1.142.216v6.15c0 1.73-.426 3.01-1.277 3.84-.84.832-1.977 1.247-3.411 1.247Zm9.01-11.237-1.345-.216v-1.03h8.957l.219 2.792H84.76l-.554-1.646-3.63-.15v4.472l2.336-.05.269-1.362h1.075v4.022h-1.075l-.269-1.43-2.336-.05v4.688l4.067-.2.974-2.127 1.26.35-.436 3.041h-9.663v-.997l1.328-.166v-9.94Zm9.734-1.246h5.109v1.03l-1.429.216 2.504 7.447.488 1.68.42-1.696 2.352-7.43-1.327-.217v-1.03h4.067v1.03l-1.076.216-3.865 11.22h-2l-4.235-11.22-1.008-.216v-1.03Zm17.436-.067h2.57l3.882 11.254.975.166v.997h-4.957v-.997l1.26-.166-.655-2.161h-4.353l-.655 2.177 1.361.15v.997h-4.285l-.017-.997 1.008-.166 3.866-11.254Zm1.159 2.81-.303-1.297-.319 1.313-1.495 5.103h3.696l-1.579-5.12Zm14.258-1.497-1.429-.216v-1.03h5.378v1.03l-1.479.216v9.94l1.479.184v.98h-5.378v-.997l1.429-.166v-9.94Zm8.405 0-1.815-.216v-1.03h5.243l2 7.147.47 1.945.404-1.945 1.982-7.147h5.193v1.03l-1.832.216 1.345 9.924 1.361.183v.997h-5.361v-.997l1.479-.166-.739-7.281-.32-3.042-.622 2.56-2.436 8.41h-1.782l-2.486-7.978-.858-2.992-.252 3.042-.638 7.28 1.697.167v.997h-4.672v-.997l1.412-.166 1.227-9.94Zm19.99-1.313h2.572l3.882 11.254.974.166v.997h-4.957v-.997l1.26-.166-.655-2.161h-4.353l-.655 2.177 1.361.15v.997h-4.285l-.017-.997 1.009-.166 3.864-11.254Zm1.16 2.81-.302-1.297-.32 1.313-1.495 5.103h3.697l-1.58-5.12Zm13.547 9.79c-1.232 0-2.297-.266-3.193-.798a5.265 5.265 0 0 1-2.016-2.227c-.46-.942-.69-2.006-.69-3.192 0-1.363.264-2.532.79-3.507a5.297 5.297 0 0 1 2.269-2.211c.975-.499 2.112-.748 3.411-.748 1.222 0 2.594.172 4.118.515l-.185 3.092h-1.698l-.453-2.128c-.112-.11-.325-.21-.639-.299-.314-.1-.723-.15-1.227-.15-1.098 0-1.96.444-2.588 1.33-.627.876-.941 2.145-.941 3.807 0 1.629.269 2.948.807 3.956.538.997 1.356 1.496 2.454 1.496.448 0 .868-.055 1.26-.166.392-.11.689-.255.89-.432v-3.574l-1.781-.166v-1.114h5.109v1.114l-.891.15v4.404c-.235.011-.661.106-1.277.283a22.38 22.38 0 0 1-1.848.415c-.505.1-1.065.15-1.681.15Zm9.01-11.287-1.345-.216v-1.03h8.957l.219 2.792h-1.177l-.554-1.646-3.63-.15v4.472l2.336-.05.269-1.362h1.075v4.022h-1.075l-.269-1.43-2.336-.05v4.688l4.067-.2.974-2.127 1.261.35-.437 3.041h-9.663v-.997l1.328-.166v-9.94Zm12.037 0-1.328-.216v-1.03h3.815l5.007 7.48.942 1.895V11.7l-1.446-.216v-1.03H196v1.03l-1.294.216v11.104h-2.033l-5.227-7.862-1.176-2.194v8.893l1.697.166v.997h-4.453v-.997l1.328-.166v-9.94Z" fill="#333A5F"/>
  <path d="M44 11.026 24.4 5.153 4.801 11.026V26.42c-.068 3.983 3.735 14.502 19.497 24.71C39.73 41.407 43.863 30.605 44 26.419V11.026Z" stroke="#333A5F" stroke-width="1.5"/>
  <path fill-rule="evenodd" clip-rule="evenodd" d="M42 12.45 24.4 7.135 6.8 12.451v10.933h15.243l-1.556-3.153c-1.324.385-2.779-.217-3.4-1.48-.7-1.401-.072-3.137 1.362-3.84 1.454-.714 3.195-.113 3.894 1.289a2.826 2.826 0 0 1-.991 3.664l1.635 3.52h2.46l1.7-3.55a2.822 2.822 0 0 1-.942-3.671c.61-1.158 1.965-1.767 3.233-1.501.525.1.954.358 1.303.658.53-.597 1.776-1.638 3.905-1.84.01-.006.017-.004.025-.002s.016.005.026 0c.317.007.582.25.563.545a.538.538 0 0 1-.502.505c-2.026.2-3.036 1.292-3.309 1.646a2.827 2.827 0 0 1-.014 2.513 2.971 2.971 0 0 1-3.416 1.498l-1.624 3.2H42V12.45ZM21.411 29.33l-4.075 10.975a.418.418 0 0 0 .215.529l1.605.779c.26.142.563.029.706-.23a.514.514 0 0 0-.232-.7l-1.604-.78.246-.495 1.605.78c.26.141.563.028.706-.23a.514.514 0 0 0-.232-.7l-1.604-.78.246-.495 1.605.779c.261.142.563.029.706-.23a.514.514 0 0 0-.231-.7l-1.605-.779.246-.495 1.616.798c.261.142.563.03.707-.23a.514.514 0 0 0-.232-.7l-1.616-.798.247-.496 1.635.788c.261.142.563.03.707-.23a.513.513 0 0 0-.232-.7l-1.636-.788.247-.495 1.635.788c.261.142.564.029.707-.23a.514.514 0 0 0-.232-.7l-1.636-.788.247-.496 1.646.808c.261.142.564.03.707-.23a.514.514 0 0 0-.232-.7l-1.646-.807 1.025-2.022h1.588l5.561 11.36c.055.1.179.135.28.08a.22.22 0 0 0 .111-.267L26.942 29.33H41.45c-1.436 4.725-5.97 12.385-17.05 19.42C13.177 41.425 8.648 33.92 7.285 29.33H21.41Zm5.578-12.741a2.077 2.077 0 0 1 2.744-.926 1.99 1.99 0 0 1 .912 2.68 2.077 2.077 0 0 1-2.744.925 1.952 1.952 0 0 1-.912-2.68Zm-9.078 1.817c-.499-.994-.065-2.186.958-2.69 1.023-.506 2.245-.087 2.724.918.5.993.065 2.185-.958 2.69-1.013.474-2.225.075-2.724-.919Z" fill="#333A5F"/>
  <path d="m8.712 25.275-.312-.047v-.225h.897l1.177 1.636.221.415v-1.779l-.34-.047v-.225h.98v.225l-.304.047v2.43h-.478l-1.228-1.72-.277-.48v1.945l.399.036v.218H8.4v-.218l.312-.036v-2.175Zm4.223 2.459c-.4 0-.698-.093-.893-.277-.195-.184-.293-.474-.293-.869v-1.313l-.26-.047v-.225h1.193v.225l-.336.051v1.356c0 .577.223.866.668.866.218 0 .38-.074.486-.222.105-.15.158-.36.158-.63v-1.37l-.34-.05v-.226h.988v.225l-.27.047v1.346c0 .378-.1.658-.3.84-.197.181-.464.273-.801.273Zm1.88-2.459-.315-.047v-.225h2.106l.051.61h-.277l-.13-.36-.853-.032v.978l.549-.01.063-.3h.253v.88h-.253l-.063-.312-.55-.01v1.025l.957-.044.229-.465.296.076-.102.665h-2.272v-.218l.312-.036v-2.175Zm2.052-.272h1.201v.225l-.335.047.588 1.63.115.367.099-.371.553-1.626-.312-.047v-.225h.956v.225l-.253.047-.909 2.455h-.47l-.995-2.455-.238-.047v-.225Zm3.863-.015h.604l.913 2.462.229.036v.218H21.31v-.218l.297-.036-.154-.473h-1.024l-.154.476.32.033v.218h-1.007l-.004-.218.237-.036.909-2.462Zm.272.615-.07-.284-.076.287-.352 1.117h.87l-.372-1.12Zm2.878-.328-.336-.047v-.225h1.265v.225l-.348.047v2.175l.348.04v.214h-1.265v-.218l.336-.036v-2.175Zm1.74 0-.428-.047v-.225h1.233l.47 1.563.11.426.096-.426.466-1.563h1.22v.225l-.43.047.316 2.171.32.04v.218h-1.26v-.218l.348-.036-.174-1.593-.075-.665-.147.56-.572 1.84h-.42l-.584-1.746-.202-.654-.059.665-.15 1.593.4.036v.218h-1.1v-.218l.333-.036.288-2.175Zm4.462-.287h.604l.913 2.462.23.036v.218h-1.166v-.218l.296-.036-.154-.473h-1.023l-.154.476.32.033v.218H28.94l-.004-.218.237-.036.909-2.462Zm.273.615-.072-.284-.075.287-.351 1.117h.869l-.371-1.12Zm2.948 2.141c-.29 0-.54-.058-.751-.174a1.187 1.187 0 0 1-.474-.487 1.481 1.481 0 0 1-.162-.699c0-.298.062-.553.186-.767a1.21 1.21 0 0 1 .533-.483c.229-.11.496-.164.802-.164.287 0 .61.038.968.113l-.044.676h-.399l-.106-.465a.372.372 0 0 0-.15-.066 1.045 1.045 0 0 0-.289-.033.722.722 0 0 0-.608.291c-.148.192-.221.47-.221.833 0 .356.063.645.19.865a.623.623 0 0 0 .576.328c.105 0 .204-.012.296-.037a.558.558 0 0 0 .21-.094v-.782l-.42-.036v-.244h1.202v.244l-.21.032v.964a1.68 1.68 0 0 0-.3.062 5.66 5.66 0 0 1-.434.09c-.119.023-.25.033-.395.033Zm1.88-2.469-.315-.047v-.225h2.105l.052.61h-.277l-.13-.36-.853-.032v.978l.549-.01.063-.3h.253v.88h-.253l-.063-.312-.55-.01v1.025l.957-.044.229-.465.296.076-.103.665h-2.271v-.218l.312-.036v-2.175Zm2.594 0-.313-.047v-.225h.897l1.178 1.636.221.415v-1.779l-.34-.047v-.225h.98v.225l-.304.047v2.43h-.478l-1.229-1.72-.277-.48v1.945l.4.036v.218h-1.047v-.218l.312-.036v-2.175Z" fill="#333A5F"/>
</svg>
