<svg width="18" height="12" fill="none" xmlns="http://www.w3.org/2000/svg">
  <rect width="18" height="12" rx="2" fill="#fff"/>
  <mask id="a" style="mask-type:luminance" maskUnits="userSpaceOnUse" x="0" y="0" width="18" height="12">
    <rect width="18" height="12" rx="2" fill="#fff"/>
  </mask>
  <g mask="url(#a)">
    <path fill-rule="evenodd" clip-rule="evenodd" d="M18 0H0v.8h18V0Zm0 1.6H0v.8h18v-.8ZM0 3.2h18V4H0v-.8Zm18 1.6H0v.8h18v-.8ZM0 6.4h18v.8H0v-.8ZM18 8H0v.8h18V8ZM0 9.6h18v.8H0v-.8Zm18 1.6H0v.8h18v-.8Z" fill="#D02F44"/>
    <path fill="#46467F" d="M0 0h7.714v5.6H0z"/>
    <g filter="url(#b)">
      <path fill-rule="evenodd" clip-rule="evenodd" d="M1.714 1.2c0 .221-.192.4-.428.4-.237 0-.429-.179-.429-.4 0-.22.192-.4.429-.4.236 0 .428.18.428.4Zm1.715 0c0 .221-.192.4-.429.4s-.429-.179-.429-.4c0-.22.192-.4.429-.4s.429.18.429.4Zm1.285.4c.237 0 .429-.179.429-.4 0-.22-.192-.4-.429-.4-.236 0-.428.18-.428.4 0 .221.192.4.428.4Zm2.143-.4c0 .221-.192.4-.428.4C6.192 1.6 6 1.421 6 1.2c0-.22.192-.4.429-.4.236 0 .428.18.428.4ZM2.143 2.4c.237 0 .428-.179.428-.4 0-.22-.191-.4-.428-.4s-.429.18-.429.4c0 .221.192.4.429.4ZM4.286 2c0 .221-.192.4-.429.4S3.43 2.221 3.43 2c0-.22.191-.4.428-.4s.429.18.429.4Zm1.285.4C5.808 2.4 6 2.221 6 2c0-.22-.192-.4-.429-.4-.236 0-.428.18-.428.4 0 .221.192.4.428.4Zm1.286.4c0 .221-.192.4-.428.4C6.192 3.2 6 3.021 6 2.8c0-.22.192-.4.429-.4.236 0 .428.18.428.4Zm-2.143.4c.237 0 .429-.179.429-.4 0-.22-.192-.4-.429-.4-.236 0-.428.18-.428.4 0 .221.192.4.428.4ZM3.43 2.8c0 .221-.192.4-.429.4s-.429-.179-.429-.4c0-.22.192-.4.429-.4s.429.18.429.4Zm-2.143.4c.236 0 .428-.179.428-.4 0-.22-.192-.4-.428-.4-.237 0-.429.18-.429.4 0 .221.192.4.429.4Zm1.285.4c0 .221-.191.4-.428.4s-.429-.179-.429-.4c0-.22.192-.4.429-.4s.428.18.428.4Zm1.286.4c.237 0 .429-.179.429-.4 0-.22-.192-.4-.429-.4s-.428.18-.428.4c0 .221.191.4.428.4ZM6 3.6c0 .221-.192.4-.429.4-.236 0-.428-.179-.428-.4 0-.22.192-.4.428-.4.237 0 .429.18.429.4Zm.429 1.2c.236 0 .428-.179.428-.4 0-.22-.192-.4-.428-.4C6.192 4 6 4.18 6 4.4c0 .221.192.4.429.4Zm-1.286-.4c0 .221-.192.4-.429.4-.236 0-.428-.179-.428-.4 0-.22.192-.4.428-.4.237 0 .429.18.429.4ZM3 4.8c.237 0 .429-.179.429-.4 0-.22-.192-.4-.429-.4s-.429.18-.429.4c0 .221.192.4.429.4Zm-1.286-.4c0 .221-.192.4-.428.4-.237 0-.429-.179-.429-.4 0-.22.192-.4.429-.4.236 0 .428.18.428.4Z" fill="url(#c)"/>
    </g>
  </g>
  <defs>
    <linearGradient id="c" x1=".857" y1=".8" x2=".857" y2="4.8" gradientUnits="userSpaceOnUse">
      <stop stop-color="#fff"/>
      <stop offset="1" stop-color="#F0F0F0"/>
    </linearGradient>
    <filter id="b" x=".857" y=".8" width="6" height="5" filterUnits="userSpaceOnUse" color-interpolation-filters="sRGB">
      <feFlood flood-opacity="0" result="BackgroundImageFix"/>
      <feColorMatrix in="SourceAlpha" values="0 0 0 0 0 0 0 0 0 0 0 0 0 0 0 0 0 0 127 0" result="hardAlpha"/>
      <feOffset dy="1"/>
      <feColorMatrix values="0 0 0 0 0 0 0 0 0 0 0 0 0 0 0 0 0 0 0.06 0"/>
      <feBlend in2="BackgroundImageFix" result="effect1_dropShadow_3151_5170"/>
      <feBlend in="SourceGraphic" in2="effect1_dropShadow_3151_5170" result="shape"/>
    </filter>
  </defs>
</svg>
